<svg width="1448" height="1032" viewBox="0 0 1448 1032" fill="none" xmlns="http://www.w3.org/2000/svg">
<g clip-path="url(#clip0_534_49)" filter="url(#filter0_d_534_49)">
<rect width="1440" height="1024" transform="translate(4)" fill="#C5E5FF"/>
<ellipse cx="107.146" cy="493.919" rx="33.7075" ry="31.9195" fill="white"/>
<ellipse cx="73.439" cy="519.611" rx="33.7075" ry="31.9195" fill="white"/>
<ellipse cx="126.877" cy="514.162" rx="33.7075" ry="31.9195" fill="white"/>
<ellipse cx="107.146" cy="542.188" rx="33.7075" ry="31.9195" fill="white"/>
<ellipse cx="160.585" cy="530.51" rx="33.7075" ry="31.9195" fill="white"/>
<ellipse cx="149.075" cy="554.645" rx="24.6641" ry="23.3557" fill="white"/>
<ellipse cx="181.139" cy="547.637" rx="24.6641" ry="23.3557" fill="white"/>
<ellipse cx="203.336" cy="539.074" rx="24.6641" ry="23.3557" fill="white"/>
<ellipse cx="53.7075" cy="546.081" rx="33.7075" ry="31.9195" fill="white"/>
<ellipse cx="1254.4" cy="330.926" rx="51.2095" ry="42.9262" fill="white"/>
<ellipse cx="1203.19" cy="365.477" rx="51.2095" ry="42.9262" fill="white"/>
<ellipse cx="1284.37" cy="358.148" rx="51.2095" ry="42.9262" fill="white"/>
<ellipse cx="1254.4" cy="395.838" rx="51.2095" ry="42.9262" fill="white"/>
<ellipse cx="1335.58" cy="380.134" rx="51.2095" ry="42.9262" fill="white"/>
<ellipse cx="1318.1" cy="412.591" rx="37.4703" ry="31.4094" fill="white"/>
<ellipse cx="1366.81" cy="403.167" rx="37.4703" ry="31.4094" fill="white"/>
<ellipse cx="1400.53" cy="391.652" rx="37.4703" ry="31.4094" fill="white"/>
<ellipse cx="1173.21" cy="401.074" rx="51.2095" ry="42.9262" fill="white"/>
<ellipse cx="233.281" cy="75.4698" rx="31.4387" ry="32.4698" fill="white"/>
<ellipse cx="201.842" cy="101.604" rx="31.4387" ry="32.4698" fill="white"/>
<ellipse cx="251.684" cy="96.0606" rx="31.4387" ry="32.4698" fill="white"/>
<ellipse cx="233.281" cy="124.57" rx="31.4387" ry="32.4698" fill="white"/>
<ellipse cx="283.122" cy="112.691" rx="31.4387" ry="32.4698" fill="white"/>
<ellipse cx="272.388" cy="137.242" rx="23.004" ry="23.7584" fill="white"/>
<ellipse cx="302.292" cy="130.114" rx="23.004" ry="23.7584" fill="white"/>
<ellipse cx="322.996" cy="121.403" rx="23.004" ry="23.7584" fill="white"/>
<ellipse cx="183.439" cy="128.53" rx="31.4387" ry="32.4698" fill="white"/>
<path d="M1612 1028.1C1612 1112.69 1421.26 1179 1207.79 1179C994.318 1179 802 1110.5 802 1025.91C802 941.319 994.318 828 1207.79 828C1421.26 828 1612 943.512 1612 1028.1Z" fill="#C9E1AA"/>
<path d="M712 1028.1C712 1112.69 521.255 1179 307.786 1179C94.3176 1179 -98 1110.5 -98 1025.91C-98 941.319 94.3176 828 307.786 828C521.255 828 712 943.512 712 1028.1Z" fill="#C9E1AA"/>
<path d="M1239 1065.16C1239 1165.41 996.448 1244 725 1244C453.552 1244 209 1162.81 209 1062.56C209 962.304 453.552 829.5 725 829.5C996.448 829.5 1239 964.904 1239 1065.16Z" fill="#D4E9BA"/>
<path d="M653 832.5L754 829.5L764 842.5L772.5 856.919L783 883L792.5 913.322L803.5 938.5L819.5 958.5L837 972L852 983.5L871.5 993.5L891 1001.5L912 1011.5L947 1025H500L557 990L598 956L626 933L644 913.322L657.766 891.603C659.9 888.235 661.342 884.475 662.007 880.543L666 856.919L653 832.5Z" fill="#FFF2BE"/>
</g>
<defs>
<filter id="filter0_d_534_49" x="0" y="0" width="1448" height="1032" filterUnits="userSpaceOnUse" color-interpolation-filters="sRGB">
<feFlood flood-opacity="0" result="BackgroundImageFix"/>
<feColorMatrix in="SourceAlpha" type="matrix" values="0 0 0 0 0 0 0 0 0 0 0 0 0 0 0 0 0 0 127 0" result="hardAlpha"/>
<feOffset dy="4"/>
<feGaussianBlur stdDeviation="2"/>
<feComposite in2="hardAlpha" operator="out"/>
<feColorMatrix type="matrix" values="0 0 0 0 0 0 0 0 0 0 0 0 0 0 0 0 0 0 0.25 0"/>
<feBlend mode="normal" in2="BackgroundImageFix" result="effect1_dropShadow_534_49"/>
<feBlend mode="normal" in="SourceGraphic" in2="effect1_dropShadow_534_49" result="shape"/>
</filter>
<clipPath id="clip0_534_49">
<rect width="1440" height="1024" fill="white" transform="translate(4)"/>
</clipPath>
</defs>
</svg>
