<svg width="33" height="77" viewBox="0 0 33 77" fill="none" xmlns="http://www.w3.org/2000/svg">
<ellipse cx="23.9759" cy="66.3871" rx="8.7271" ry="9.74358" fill="white"/>
<ellipse cx="12.3396" cy="47.5497" rx="8.7271" ry="9.74358" fill="white"/>
<ellipse cx="11.7571" cy="46.2504" rx="8.7271" ry="9.74358" fill="white"/>
<ellipse cx="11.1748" cy="44.9516" rx="8.7271" ry="9.74358" fill="white"/>
<ellipse cx="10.5936" cy="43.0024" rx="8.7271" ry="9.74358" fill="white"/>
<ellipse cx="10.0113" cy="41.0536" rx="8.7271" ry="9.74358" fill="white"/>
<ellipse cx="9.42998" cy="37.1562" rx="8.7271" ry="9.74358" fill="white"/>
<ellipse cx="9.42998" cy="33.2587" rx="8.7271" ry="9.74358" fill="white"/>
<ellipse cx="9.42998" cy="29.3617" rx="8.7271" ry="9.74358" fill="white"/>
<ellipse cx="10.0113" cy="25.4638" rx="8.7271" ry="9.74358" fill="white"/>
<ellipse cx="11.1748" cy="21.5668" rx="8.7271" ry="9.74358" fill="white"/>
<ellipse cx="12.3396" cy="18.3188" rx="8.7271" ry="9.74358" fill="white"/>
<ellipse cx="14.6658" cy="15.0707" rx="8.7271" ry="9.74358" fill="white"/>
<ellipse cx="15.2481" cy="14.4218" rx="8.7271" ry="9.74358" fill="white"/>
<ellipse cx="16.4117" cy="12.4726" rx="8.7271" ry="9.74358" fill="white"/>
<ellipse cx="18.1578" cy="11.1738" rx="8.7271" ry="9.74358" fill="white"/>
<ellipse cx="20.4839" cy="9.87444" rx="8.7271" ry="9.74358" fill="white"/>
</svg>
