
<svg width="52" height="52" viewBox="0 0 52 52" fill="none" xmlns="http://www.w3.org/2000/svg">
<ellipse cx="25.9441" cy="26.449" rx="22.7586" ry="22.4138" fill="#C4C4C4"/>
<ellipse cx="25.9437" cy="26.4481" rx="11.3793" ry="11.2069" fill="#888888"/>
<rect x="20.9375" width="10.0138" height="5.82759" rx="2.9138" fill="#C4C4C4"/>
<rect x="20.4824" y="46.1729" width="10.0138" height="5.82759" rx="2.9138" fill="#C4C4C4"/>
<rect width="9.931" height="5.87684" rx="2.93842" transform="matrix(0.678239 -0.734842 0.745061 0.666996 2.73047 12.2285)" fill="#C4C4C4"/>
<rect width="9.931" height="5.87684" rx="2.93842" transform="matrix(0.678239 -0.734842 0.745061 0.666996 37.3242 44.5049)" fill="#C4C4C4"/>
<rect width="9.92521" height="5.88025" rx="2.94013" transform="matrix(0.649436 0.760416 -0.770095 0.637929 43.2178 4.93066)" fill="#C4C4C4"/>
<rect width="9.92521" height="5.88025" rx="2.94013" transform="matrix(0.649436 0.760416 -0.770095 0.637929 6.80469 35.4141)" fill="#C4C4C4"/>
<rect width="11.2069" height="5.91722" rx="2.95861" transform="matrix(0.00988517 0.999951 -0.999954 0.009588 51.8887 21.5176)" fill="#C4C4C4"/>
<rect width="11.2069" height="5.91722" rx="2.95861" transform="matrix(0.00988517 0.999951 -0.999954 0.009588 5.91699 21.5166)" fill="#C4C4C4"/>
</svg>
